<svg xmlns="http://www.w3.org/2000/svg" fill="#970000" viewBox="0 0 157.1 158.4">
    <path
        d="M156.3 79.6c0-42.8-34.9-77.7-77.7-77.7C35.7 1.9.9 36.7.9 79.6c0 39.5 29.5 72.6 68.7 77.2v-47.4c-25-3.8-43.8-25.5-43.8-50.7C25.8 30.4 49 7.4 77.6 7.4c28.5 0 51.8 23 51.8 51.3 0 26.1-19.6 47.9-45.6 51v47.6c40.6-2.8 72.5-36.8 72.5-77.7z" />
    <path
        d="M77.4 16c-23.2 0-42.1 18.9-42.1 42.1s18.9 42.1 42.1 42.1 42.1-18.9 42.1-42.1S100.7 16 77.4 16zm18.8 75.8c0 .1 0 .1 0 0v.1h-.9c-.2 0-.3 0-.5-.1-3.1-.4-7.1-.7-10.4-.9-1.1-.1-2-.1-2-.1l-.2-.4c-.1-.3-.2-.7-.4-1.2-.1-.2-.2-.5-.3-.8 0-.1 0-.1-.1-.1-.4-1.1-.9-2.5-1.5-4.2-1.5-4.3-3.8-10.6-6.7-18.8l-1.1-3v14.3c0 13.6 0 14.3-.2 14.3-.5 0-4.9.3-6.3.4-1 .1-2.9.3-4.3.4-1.2.2-2.3.3-2.4.3V24.2h13.4l.1.2.2.6c.2.6.5 1.4.9 2.5.1.2.1.4.2.6.1.4.3.8.4 1.2.2.6.5 1.3.7 2 0 .1.1.3.1.4.2.6.1.4.4 1.2.5 1.5 1 2.9 1.4 4.1.8 2.3 1.5 4.1 2 5.6.4 1.1.7 2 1 2.8.8 2.4 1.3 3.7 1.9 5.3l1.2 3.5v-30H96V58c.2 17.8.2 32.5.2 33.8z" />
</svg>